<svg width="1577" height="307" viewBox="0 0 1577 307" fill="none" xmlns="http://www.w3.org/2000/svg">
<path d="M10 290V10H335.6C367.867 10 392.667 16.5333 410 29.6C427.333 42.4 436 60 436 82.4C436 97.6 432.533 110.4 425.6 120.8C418.933 131.2 409.867 139.2 398.4 144.8C386.933 150.4 374.533 153.2 361.2 153.2L368.4 141.2C384.4 141.2 398.533 144 410.8 149.6C423.067 155.2 432.8 163.467 440 174.4C447.2 185.067 450.8 198.4 450.8 214.4C450.8 238.4 441.733 257.067 423.6 270.4C405.733 283.467 379.067 290 343.6 290H10ZM50 257.6H342C364.133 257.6 381.067 253.867 392.8 246.4C404.533 238.933 410.4 227.2 410.4 211.2C410.4 194.933 404.533 183.067 392.8 175.6C381.067 168.133 364.133 164.4 342 164.4H46.4V132H332C352.267 132 368 128.267 379.2 120.8C390.4 113.333 396 102.133 396 87.2C396 72.2667 390.4 61.0667 379.2 53.6C368 46.1333 352.267 42.4 332 42.4H50V257.6Z" fill="black"/>
<path d="M600.801 290L600.801 10M722.045 220L479.558 80M722.045 80L479.558 220M670.801 28.7563L530.801 271.243M530.801 28.7563L670.801 271.243M460.801 150H740.801" stroke="#FF0000" stroke-width="33"/>
<path d="M750.801 290V10H783.601L968.801 240H951.601V10H991.601V290H958.801L773.601 60H790.801V290H750.801Z" fill="black"/>
<path d="M1150.8 296.4C1129.2 296.4 1109.33 292.933 1091.2 286C1073.07 278.8 1057.33 268.8 1044 256C1030.67 242.933 1020.27 227.733 1012.8 210.4C1005.33 193.067 1001.6 174 1001.6 153.2C1001.6 132.4 1005.33 113.333 1012.8 96C1020.27 78.6667 1030.67 63.6 1044 50.8C1057.6 37.7333 1073.47 27.7333 1091.6 20.8C1109.73 13.6 1129.73 10 1151.6 10C1173.73 10 1194 13.6 1212.4 20.8C1230.8 28 1246.4 38.8 1259.2 53.2L1234.4 78C1222.93 66.8 1210.4 58.6667 1196.8 53.6C1183.47 48.2667 1168.93 45.6 1153.2 45.6C1137.2 45.6 1122.27 48.2667 1108.4 53.6C1094.8 58.9333 1082.93 66.4 1072.8 76C1062.93 85.6 1055.2 97.0667 1049.6 110.4C1044.27 123.467 1041.6 137.733 1041.6 153.2C1041.6 168.4 1044.27 182.667 1049.6 196C1055.2 209.067 1062.93 220.533 1072.8 230.4C1082.93 240 1094.8 247.467 1108.4 252.8C1122 258.133 1136.8 260.8 1152.8 260.8C1167.73 260.8 1182 258.533 1195.6 254C1209.47 249.2 1222.27 241.333 1234 230.4L1256.8 260.8C1242.93 272.533 1226.67 281.467 1208 287.6C1189.6 293.467 1170.53 296.4 1150.8 296.4ZM1218.4 255.6V151.6H1256.8V260.8L1218.4 255.6Z" fill="black"/>
<path d="M1146 190.4L1250 190.4L1255.2 152L1146 152L1146 190.4Z" fill="black"/>
<path d="M1418.4 296.4C1397.07 296.4 1377.2 292.8 1358.8 285.6C1340.67 278.4 1324.93 268.4 1311.6 255.6C1298.27 242.533 1287.87 227.333 1280.4 210C1272.93 192.667 1269.2 173.733 1269.2 153.2C1269.2 132.667 1272.93 113.733 1280.4 96.4C1287.87 79.0667 1298.27 64 1311.6 51.2C1324.93 38.1333 1340.67 28 1358.8 20.8C1376.93 13.6 1396.8 10 1418.4 10C1439.73 10 1459.33 13.6 1477.2 20.8C1495.33 27.7333 1511.07 37.7333 1524.4 50.8C1538 63.6 1548.4 78.6667 1555.6 96C1563.07 113.333 1566.8 132.4 1566.8 153.2C1566.8 174 1563.07 193.067 1555.6 210.4C1548.4 227.733 1538 242.933 1524.4 256C1511.07 268.8 1495.33 278.8 1477.2 286C1459.33 292.933 1439.73 296.4 1418.4 296.4ZM1418.4 260.8C1433.87 260.8 1448.13 258.133 1461.2 252.8C1474.53 247.467 1486 240 1495.6 230.4C1505.47 220.533 1513.07 209.067 1518.4 196C1524 182.933 1526.8 168.667 1526.8 153.2C1526.8 137.733 1524 123.467 1518.4 110.4C1513.07 97.3333 1505.47 86 1495.6 76.4C1486 66.5333 1474.53 58.9333 1461.2 53.6C1448.13 48.2667 1433.87 45.6 1418.4 45.6C1402.67 45.6 1388.13 48.2667 1374.8 53.6C1361.73 58.9333 1350.27 66.5333 1340.4 76.4C1330.53 86 1322.8 97.3333 1317.2 110.4C1311.87 123.467 1309.2 137.733 1309.2 153.2C1309.2 168.667 1311.87 182.933 1317.2 196C1322.8 209.067 1330.53 220.533 1340.4 230.4C1350.27 240 1361.73 247.467 1374.8 252.8C1388.13 258.133 1402.67 260.8 1418.4 260.8Z" fill="black"/>
</svg>
